<svg width="40" height="40" viewBox="0 0 40 40" fill="none" xmlns="http://www.w3.org/2000/svg">
<path d="M36.7999 16.7999H23.2001V3.20015C23.2001 2.35142 22.863 1.53745 22.2629 0.937304C21.6627 0.337161 20.8487 0 20 0C19.1513 0 18.3373 0.337161 17.7372 0.937304C17.137 1.53745 16.7999 2.35142 16.7999 3.20015V16.7999H3.20015C2.35142 16.7999 1.53745 17.137 0.937304 17.7372C0.337161 18.3373 0 19.1513 0 20V20C0 20.8487 0.337161 21.6627 0.937304 22.2628C1.53745 22.863 2.35142 23.2001 3.20015 23.2001H16.7999V36.7998C16.7999 37.6486 17.137 38.4626 17.7372 39.0627C18.3373 39.6628 19.1513 40 20 40V40C20.8487 40 21.6627 39.6628 22.2629 39.0627C22.863 38.4626 23.2001 37.6486 23.2001 36.7998V23.2001H36.7999C37.6486 23.2001 38.4626 22.863 39.0627 22.2628C39.6628 21.6627 40 20.8487 40 20V20C40 19.1513 39.6628 18.3373 39.0627 17.7372C38.4626 17.137 37.6486 16.7999 36.7999 16.7999V16.7999Z" fill="black"/>
</svg>
