<svg width="40" height="40" viewBox="0 0 40 40" fill="none" xmlns="http://www.w3.org/2000/svg">
<path fill-rule="evenodd" clip-rule="evenodd" d="M13.3333 8.33333H6.66667C5.74619 8.33333 5 9.07952 5 10C5 10.9205 5.74619 11.6667 6.66667 11.6667H6.87414L9.62891 32.3275C9.96012 34.8115 12.079 36.6667 14.5851 36.6667H25.4149C27.921 36.6667 30.0399 34.8115 30.3711 32.3275L33.1259 11.6667H33.3333C34.2538 11.6667 35 10.9205 35 10C35 9.07952 34.2538 8.33333 33.3333 8.33333H26.6667C26.6667 5.5719 24.4281 3.33333 21.6667 3.33333H18.3333C15.5719 3.33333 13.3333 5.5719 13.3333 8.33333ZM16.6667 8.33333C16.6667 7.41285 17.4129 6.66666 18.3333 6.66666H21.6667C22.5871 6.66666 23.3333 7.41285 23.3333 8.33333H16.6667ZM12.933 31.8869L10.237 11.6667H29.763L27.067 31.8869C26.9566 32.7149 26.2503 33.3333 25.4149 33.3333H14.5851C13.7497 33.3333 13.0434 32.7149 12.933 31.8869Z" fill="black"/>
</svg>
