<svg width="40" height="40" viewBox="0 0 40 40" fill="none" xmlns="http://www.w3.org/2000/svg">
<path fill-rule="evenodd" clip-rule="evenodd" d="M28.0513 1.16657C29.6067 -0.388855 32.1285 -0.388858 33.6839 1.16657L38.8334 6.31606C40.3889 7.87148 40.3889 10.3933 38.8334 11.9487L11.9487 38.8334C11.2018 39.5804 10.1887 40 9.1324 40H3.98292C1.78321 40 0 38.2168 0 36.0171V30.8676C0 29.8113 0.419627 28.7982 1.16657 28.0513L28.0513 1.16657ZM27.7096 7.14094L32.8591 12.2904L36.0171 9.1324L30.8676 3.98292L27.7096 7.14094ZM30.0427 15.1068L24.8932 9.95729L3.98292 30.8676V36.0171H9.1324L30.0427 15.1068Z" fill="black"/>
</svg>
