<svg width="44" height="38" viewBox="0 0 44 38" fill="none" xmlns="http://www.w3.org/2000/svg">
<path d="M43.6119 36.9201C43.2854 37.4443 42.7871 37.8013 42.2266 37.9124C41.6661 38.0236 41.0893 37.8798 40.623 37.5127L28.9151 28.352C28.4489 27.985 28.1315 27.4246 28.0326 26.7943C27.9338 26.164 28.0616 25.5154 28.3881 24.9911C28.7145 24.4669 29.2129 24.1099 29.7734 23.9987C30.3339 23.8876 30.9107 24.0314 31.3769 24.3985L43.0849 33.5592C43.5511 33.9263 43.8685 34.4866 43.9674 35.1169C44.0662 35.7472 43.9383 36.3958 43.6119 36.9201Z" fill="black"/>
<path d="M30.0227 26.9232C28.1506 29.594 25.5275 31.6502 22.4854 32.8319C19.4432 34.0136 16.1185 34.2677 12.9318 33.5621C9.74502 32.8565 6.83933 31.2228 4.58213 28.8676C2.32493 26.5125 0.817619 23.5416 0.250775 20.3308C-0.316068 17.12 0.0830045 13.8134 1.39758 10.8291C2.71216 7.84481 4.88317 5.31694 7.63607 3.56511C10.389 1.81328 13.6001 0.916185 16.8635 0.987273C20.1268 1.05836 23.2958 2.09444 25.9696 3.96448C29.551 6.47531 31.989 10.3026 32.7489 14.6067C33.5087 18.9108 32.5283 23.3402 30.0227 26.9232ZM6.36432 10.3768C4.96019 12.3798 4.18227 14.7538 4.12889 17.1985C4.07552 19.6432 4.7491 22.0488 6.06448 24.1111C7.37985 26.1734 9.27793 27.7998 11.5187 28.7846C13.7595 29.7694 16.2423 30.0683 18.6531 29.6437C21.064 29.2191 23.2947 28.0899 25.0631 26.3989C26.8314 24.708 28.0581 22.5312 28.588 20.1439C29.1178 17.7566 28.927 15.2659 28.0397 12.9869C27.1524 10.7079 25.6084 8.74292 23.6031 7.34039C20.9128 5.46333 17.5869 4.72884 14.3551 5.29807C11.1234 5.86731 8.24959 7.69378 6.36432 10.3768Z" fill="black"/>
</svg>
