<svg width="40" height="40" viewBox="0 0 40 40" fill="none" xmlns="http://www.w3.org/2000/svg">
<path d="M19.6549 2.98816C20.3057 2.33728 21.361 2.33728 22.0119 2.98816C22.6628 3.63903 22.6628 4.6943 22.0119 5.34518L20.6737 6.68339C27.7245 7.03424 33.3334 12.8621 33.3334 20C33.3334 27.3638 27.3638 33.3333 20 33.3333C12.6362 33.3333 6.66671 27.3638 6.66671 20C6.66671 18.2508 7.0044 16.5764 7.6197 15.0414C7.96217 14.187 8.93242 13.772 9.78681 14.1145C10.6412 14.457 11.0562 15.4272 10.7137 16.2816C10.2539 17.4289 10 18.6828 10 20C10 25.5228 14.4772 30 20 30C25.5229 30 30 25.5228 30 20C30 14.7178 25.9045 10.3921 20.7156 10.0252L22.0119 11.3215C22.6628 11.9724 22.6628 13.0276 22.0119 13.6785C21.361 14.3294 20.3057 14.3294 19.6549 13.6785L15.4882 9.51184C14.8373 8.86097 14.8373 7.8057 15.4882 7.15482L19.6549 2.98816Z" fill="black"/>
</svg>
