<svg width="65" height="65" viewBox="0 0 65 65" fill="none" xmlns="http://www.w3.org/2000/svg">
<path fill-rule="evenodd" clip-rule="evenodd" d="M34.4151 11.1619C33.3574 10.1042 31.6426 10.1042 30.5849 11.1619L14.3349 27.4119C13.827 27.9198 13.5417 28.6087 13.5417 29.327V54.1667H21.6667V37.9167C21.6667 36.4209 22.8792 35.2083 24.375 35.2083H40.625C42.1208 35.2083 43.3333 36.4209 43.3333 37.9167V54.1667H51.4583V29.327C51.4583 28.6087 51.173 27.9198 50.6651 27.4119L34.4151 11.1619ZM26.7548 7.33174C29.9278 4.15873 35.0722 4.15874 38.2452 7.33175L54.4952 23.5817C56.019 25.1055 56.875 27.1721 56.875 29.327V56.875C56.875 58.3708 55.6624 59.5833 54.1667 59.5833H40.625C39.1292 59.5833 37.9167 58.3708 37.9167 56.875V40.625H27.0833V56.875C27.0833 58.3708 25.8708 59.5833 24.375 59.5833H10.8333C9.33756 59.5833 8.125 58.3708 8.125 56.875V29.327C8.125 27.1721 8.98102 25.1055 10.5048 23.5817L26.7548 7.33174Z" fill="#F8FAFC"/>
</svg>
