<svg width="127" height="57" viewBox="0 0 127 57" fill="none" xmlns="http://www.w3.org/2000/svg">
<g filter="url(#filter0_d_91_1151)">
<path d="M4.8125 48V1.46875H36.2812V10.3438H16.4375V18.5H34.7188V27.375H16.4375V39.125H36.2812V48H4.8125ZM39.1875 48L54.9062 1.46875H67.6562L83.375 48H71.3438L68.4375 38.5H53.8125L50.9062 48H39.1875ZM65.875 30.0625L61.125 14.7188L56.375 30.0625H65.875ZM102.375 48.8438C98.8125 48.8438 95.6771 48.5 92.9688 47.8125C90.2812 47.125 87.7812 46.2708 85.4688 45.25V34.1875H86.5312C88.8646 36.1667 91.4375 37.6875 94.25 38.75C97.0625 39.8125 99.7917 40.3438 102.438 40.3438C103.104 40.3438 103.979 40.2708 105.062 40.125C106.167 39.9792 107.052 39.75 107.719 39.4375C108.531 39.0833 109.219 38.5938 109.781 37.9688C110.344 37.3229 110.625 36.4792 110.625 35.4375C110.625 34.2708 110.167 33.3229 109.25 32.5938C108.333 31.8646 107.24 31.3333 105.969 31C104.385 30.5833 102.688 30.1875 100.875 29.8125C99.0833 29.4375 97.4062 28.9792 95.8438 28.4375C92.2396 27.1667 89.6562 25.4583 88.0938 23.3125C86.5312 21.1667 85.75 18.4792 85.75 15.25C85.75 10.8958 87.5938 7.375 91.2812 4.6875C94.9688 1.97917 99.5729 0.625 105.094 0.625C107.865 0.625 110.615 0.90625 113.344 1.46875C116.094 2.03125 118.552 2.79167 120.719 3.75V14.375H119.688C117.958 12.8958 115.844 11.6458 113.344 10.625C110.865 9.60417 108.312 9.09375 105.688 9.09375C104.667 9.09375 103.75 9.16667 102.938 9.3125C102.125 9.45833 101.271 9.73958 100.375 10.1562C99.6458 10.4896 99.0104 10.9896 98.4688 11.6562C97.9479 12.3021 97.6875 13.0312 97.6875 13.8438C97.6875 15.0312 98.1042 15.9792 98.9375 16.6875C99.7917 17.375 101.427 18 103.844 18.5625C105.406 18.9167 106.906 19.2604 108.344 19.5938C109.802 19.9271 111.354 20.3854 113 20.9688C116.229 22.1354 118.625 23.7083 120.188 25.6875C121.771 27.6458 122.562 30.2396 122.562 33.4688C122.562 38.0938 120.74 41.8125 117.094 44.625C113.469 47.4375 108.562 48.8438 102.375 48.8438Z" fill="#F7F7F7"/>
</g>
<defs>
<filter id="filter0_d_91_1151" x="0.8125" y="0.625" width="125.75" height="56.2188" filterUnits="userSpaceOnUse" color-interpolation-filters="sRGB">
<feFlood flood-opacity="0" result="BackgroundImageFix"/>
<feColorMatrix in="SourceAlpha" type="matrix" values="0 0 0 0 0 0 0 0 0 0 0 0 0 0 0 0 0 0 127 0" result="hardAlpha"/>
<feOffset dy="4"/>
<feGaussianBlur stdDeviation="2"/>
<feComposite in2="hardAlpha" operator="out"/>
<feColorMatrix type="matrix" values="0 0 0 0 0 0 0 0 0 0 0 0 0 0 0 0 0 0 0.25 0"/>
<feBlend mode="normal" in2="BackgroundImageFix" result="effect1_dropShadow_91_1151"/>
<feBlend mode="normal" in="SourceGraphic" in2="effect1_dropShadow_91_1151" result="shape"/>
</filter>
</defs>
</svg>
