<svg width="65" height="65" viewBox="0 0 65 65" fill="none" xmlns="http://www.w3.org/2000/svg">
<path d="M60.5914 42.1436H54.7391V26.3048C54.7391 18.1455 49.3663 11.2183 41.9732 8.87282C41.8337 3.95701 37.794 0 32.8449 0H32.6899C27.7955 0 23.7885 3.86983 23.5659 8.71021C15.896 10.8833 10.2606 17.9482 10.2606 26.3048V42.1436H4.40857V57.1636H23.3113C24.0179 61.599 27.8687 65 32.4999 65C37.131 65 40.9819 61.599 41.6885 57.1636H60.5912L60.5914 42.1436ZM32.6899 2.93867H32.8449C35.942 2.93867 38.5157 5.2228 38.9698 8.19497C38.1476 8.08134 37.3083 8.02119 36.4553 8.02119H28.5442C27.8797 8.02119 27.2234 8.05783 26.5771 8.12738C27.0598 5.18851 29.6165 2.93867 32.6899 2.93867ZM32.4999 62.0611C29.4948 62.0611 26.9711 59.9678 26.3058 57.1634H38.694C38.0287 59.9678 35.505 62.0611 32.4999 62.0611ZM57.6527 54.2247H7.34724V45.0821H13.1995V26.3046C13.1995 17.8434 20.0832 10.9597 28.5444 10.9597H36.4555C44.9167 10.9597 51.8005 17.8434 51.8005 26.3046V45.0821H57.6527V54.2247Z" fill="#F8FAFC"/>
<path d="M57.6527 54.2247H7.34724V45.0821H13.1995V26.3046C13.1995 17.8434 20.0832 10.9597 28.5444 10.9597H36.4555C44.9167 10.9597 51.8005 17.8434 51.8005 26.3046V45.0821H57.6527V54.2247Z" fill="#F8FAFC"/>
<path d="M32.4999 62.0611C29.4948 62.0611 26.9711 59.9678 26.3058 57.1634H38.694C38.0287 59.9678 35.505 62.0611 32.4999 62.0611Z" fill="#F8FAFC"/>
<path d="M32.6899 2.93867H32.8449C35.942 2.93867 38.5157 5.2228 38.9698 8.19497C38.1476 8.08134 37.3083 8.02119 36.4553 8.02119H28.5442C27.8797 8.02119 27.2234 8.05783 26.5771 8.12738C27.0598 5.18851 29.6165 2.93867 32.6899 2.93867Z" fill="#F8FAFC"/>
</svg>
