<svg width="245" height="69" viewBox="0 0 245 69" fill="none" xmlns="http://www.w3.org/2000/svg">
<rect width="245" height="69" rx="13" fill="#D9D9D9"/>
<g clip-path="url(#clip0_318_2634)">
<path d="M228.481 11.5191C222.343 5.38084 214.181 2 205.5 2C196.819 2 188.657 5.38084 182.519 11.5191C176.381 17.6575 173 25.8191 173 34.5C173 42.4235 175.816 49.9143 180.977 55.8291C181.47 56.3948 181.984 56.9458 182.519 57.481C182.645 57.6068 182.772 57.7327 182.9 57.8548C183.614 58.5464 184.353 59.2013 185.117 59.817C185.12 59.8207 185.123 59.8232 185.126 59.8256C190.882 64.4745 197.997 67 205.5 67C214.181 67 222.343 63.6193 228.481 57.481C228.938 57.024 229.379 56.5561 229.804 56.0783C235.103 50.1257 238 42.5359 238 34.5C238 25.8191 234.619 17.6575 228.481 11.5191ZM229.725 55.7741C228.763 56.8676 227.73 57.8964 226.63 58.8507C224.544 60.665 222.223 62.2142 219.719 63.4483C218.841 63.882 217.94 64.2766 217.019 64.6298C213.441 66.0031 209.556 66.7556 205.5 66.7556C201.585 66.7556 197.832 66.0544 194.358 64.7715C192.933 64.246 191.554 63.6218 190.231 62.907C190.037 62.802 189.844 62.6956 189.652 62.5869C188.643 62.0151 187.667 61.3908 186.729 60.7163C185.387 59.7535 184.121 58.6893 182.944 57.5359C182.284 56.8896 181.654 56.2164 181.052 55.5163C176.188 49.8667 173.244 42.5212 173.244 34.5C173.244 16.7143 187.714 2.24436 205.5 2.24436C223.286 2.24436 237.756 16.7143 237.756 34.5C237.756 42.6446 234.722 50.0927 229.725 55.7741Z" fill="#3F3D56"/>
<path d="M229.725 55.7741C228.763 56.8676 227.73 57.8964 226.63 58.8507C224.544 60.665 222.223 62.2142 219.719 63.4483C218.841 63.882 217.94 64.2766 217.019 64.6298C213.441 66.0031 209.556 66.7556 205.5 66.7556C201.585 66.7556 197.832 66.0544 194.358 64.7715C192.933 64.246 191.554 63.6218 190.231 62.907C190.037 62.802 189.844 62.6956 189.652 62.5869C188.643 62.0151 187.667 61.3908 186.729 60.7163C185.387 59.7535 184.121 58.6893 182.944 57.5359C182.284 56.8896 181.654 56.2164 181.052 55.5163C176.188 49.8667 173.244 42.5212 173.244 34.5C173.244 16.7143 187.714 2.24436 205.5 2.24436C223.286 2.24436 237.756 16.7143 237.756 34.5C237.756 42.6446 234.722 50.0927 229.725 55.7741Z" fill="#F8FAFC"/>
<path d="M206.082 44.4306C211.908 44.4306 216.632 39.7072 216.632 33.8805C216.632 28.0538 211.908 23.3303 206.082 23.3303C200.255 23.3303 195.531 28.0538 195.531 33.8805C195.531 39.7072 200.255 44.4306 206.082 44.4306Z" fill="#535353"/>
<path d="M197.349 46.793L199.548 41.1727L210.911 39.4622L212.132 51.9034L200.647 52.1478L197.349 46.793Z" fill="#535353"/>
<path d="M216.734 35.827C216.597 36.3756 216.32 37.6817 215.888 37.6881C215.535 37.6933 215.197 32.0269 215.549 31.0897C215.955 30.0129 214.89 28.6509 214.088 27.9517C212.645 26.6945 209.444 29.394 206.189 28.1711C206.102 28.1388 206.119 28.1424 205.091 27.7323C201.928 26.4702 201.762 26.4338 201.581 26.4158C200.047 26.2641 198.176 27.5189 197.412 29.0488C196.617 30.6392 197.281 32.0033 196.534 35.8508C196.447 36.2993 196.31 36.9385 196.095 36.9479C195.702 36.965 195.318 34.8649 195.218 34.3149C194.796 32.0103 194.39 29.7885 195.218 27.2934C195.308 27.0213 195.864 26.0112 196.973 24.0021C198.57 21.1079 199.374 19.6553 199.606 19.3943C201.271 17.5218 204.302 15.8135 206.847 16.5419C208.133 16.91 207.902 17.5018 209.48 18.0778C212.291 19.1042 214.734 17.849 215.185 18.7361C215.424 19.206 214.756 19.5934 214.746 20.4914C214.729 22.0323 216.678 22.4776 217.818 24.0021C218.431 24.8218 219.479 24.8305 216.734 35.827L216.734 35.827V35.827Z" fill="#2F2E41"/>
<path d="M229.804 56.0783C229.379 56.5561 228.938 57.024 228.481 57.481C222.343 63.6193 214.181 67 205.5 67C197.997 67 190.882 64.4745 185.126 59.8256C185.123 59.8232 185.12 59.8207 185.117 59.817C184.353 59.2013 183.614 58.5464 182.9 57.8548C182.914 57.7473 182.928 57.641 182.944 57.5359C183.044 56.8273 183.156 56.1516 183.28 55.5297C184.3 50.4324 197.724 45.0809 198.074 44.9415C198.079 44.9403 198.081 44.9392 198.081 44.9392C198.081 44.9392 199.809 51.3072 207.212 51.2254C212.254 51.1704 211.277 44.9392 211.277 44.9392C211.277 44.9392 211.338 44.9513 211.453 44.9758C212.909 45.2849 223.021 47.5061 227.01 50.5375C228.226 51.4611 229.098 53.4283 229.725 55.7741C229.752 55.8743 229.777 55.9769 229.804 56.0783V56.0783Z" fill="#6C63FF"/>
</g>
<defs>
<clipPath id="clip0_318_2634">
<rect width="65" height="65" fill="white" transform="translate(173 2)"/>
</clipPath>
</defs>
</svg>
