<svg width="607" height="78" viewBox="0 0 607 78" fill="none" xmlns="http://www.w3.org/2000/svg">
<path d="M578.747 77.9278H28.2525C20.762 77.9198 13.5808 75.095 8.28431 70.073C2.98778 65.0511 0.00846016 58.2422 0 51.1401V26.7877C0.00846016 19.6856 2.98778 12.8767 8.28431 7.8548C13.5808 2.83287 20.762 0.00802391 28.2525 0H578.747C586.238 0.00802154 593.419 2.83286 598.716 7.85479C604.012 12.8767 606.992 19.6856 607 26.7877V51.1401C606.992 58.2422 604.012 65.0511 598.716 70.073C593.419 75.095 586.238 77.9198 578.747 77.9278ZM28.2525 1.62349C21.216 1.63105 14.47 4.28471 9.49452 9.00228C4.51899 13.7198 1.72024 20.1161 1.71226 26.7877V51.1401C1.72024 57.8118 4.51899 64.208 9.49452 68.9256C14.47 73.6431 21.216 76.2968 28.2525 76.3043H578.747C585.784 76.2968 592.53 73.6431 597.505 68.9256C602.481 64.208 605.28 57.8118 605.288 51.1401V26.7877C605.28 20.1161 602.481 13.7198 597.505 9.00228C592.53 4.28471 585.784 1.63105 578.747 1.62349H28.2525Z" fill="#3F3D56"/>
</svg>
