<svg width="65" height="68" viewBox="0 0 65 68" fill="none" xmlns="http://www.w3.org/2000/svg">
<g filter="url(#filter0_d_308_1075)">
<path fill-rule="evenodd" clip-rule="evenodd" d="M32.5 24.375C28.0127 24.375 24.375 28.0127 24.375 32.5C24.375 36.9873 28.0127 40.625 32.5 40.625C36.9873 40.625 40.625 36.9873 40.625 32.5C40.625 28.0127 36.9873 24.375 32.5 24.375ZM29.7917 32.5C29.7917 31.0042 31.0042 29.7917 32.5 29.7917C33.9958 29.7917 35.2083 31.0042 35.2083 32.5C35.2083 33.9958 33.9958 35.2083 32.5 35.2083C31.0042 35.2083 29.7917 33.9958 29.7917 32.5Z" fill="#F8FAFC"/>
<path fill-rule="evenodd" clip-rule="evenodd" d="M39.5534 11.6191C38.0656 3.84342 26.9344 3.84342 25.4467 11.6191C25.2083 12.8652 23.7721 13.46 22.7224 12.7475C16.1722 8.30127 8.30128 16.1722 12.7475 22.7224C13.46 23.7721 12.8652 25.2083 11.6191 25.4467C3.84344 26.9344 3.84344 38.0656 11.6191 39.5533C12.8652 39.7918 13.46 41.2279 12.7475 42.2776C8.30128 48.8278 16.1722 56.6987 22.7224 52.2525C23.7721 51.54 25.2083 52.1348 25.4467 53.3809C26.9344 61.1566 38.0656 61.1566 39.5534 53.3809C39.7918 52.1348 41.2279 51.54 42.2776 52.2525C48.8278 56.6987 56.6987 48.8278 52.2525 42.2776C51.54 41.2279 52.1349 39.7918 53.3809 39.5533C61.1566 38.0656 61.1566 26.9344 53.3809 25.4467C52.1349 25.2083 51.54 23.7721 52.2525 22.7224C56.6988 16.1722 48.8278 8.30127 42.2776 12.7475C41.2279 13.46 39.7918 12.8652 39.5534 11.6191ZM30.7668 12.637C31.1324 10.7263 33.8676 10.7263 34.2332 12.637C35.2034 17.708 41.0479 20.1289 45.3197 17.2292C46.9293 16.1367 48.8634 18.0707 47.7708 19.6803C44.8711 23.9521 47.292 29.7966 52.363 30.7668C54.2737 31.1324 54.2737 33.8676 52.363 34.2332C47.292 35.2034 44.8711 41.0479 47.7708 45.3197C48.8634 46.9293 46.9293 48.8634 45.3197 47.7708C41.0479 44.8711 35.2034 47.292 34.2332 52.363C33.8676 54.2737 31.1324 54.2737 30.7668 52.363C29.7966 47.292 23.9521 44.8711 19.6803 47.7708C18.0708 48.8634 16.1367 46.9293 17.2292 45.3197C20.1289 41.0479 17.708 35.2034 12.637 34.2332C10.7264 33.8676 10.7264 31.1324 12.637 30.7668C17.708 29.7966 20.1289 23.9521 17.2292 19.6803C16.1367 18.0707 18.0708 16.1367 19.6803 17.2292C23.9521 20.1289 29.7966 17.708 30.7668 12.637Z" fill="#F8FAFC"/>
</g>
<defs>
<filter id="filter0_d_308_1075" x="-4" y="0" width="73" height="73" filterUnits="userSpaceOnUse" color-interpolation-filters="sRGB">
<feFlood flood-opacity="0" result="BackgroundImageFix"/>
<feColorMatrix in="SourceAlpha" type="matrix" values="0 0 0 0 0 0 0 0 0 0 0 0 0 0 0 0 0 0 127 0" result="hardAlpha"/>
<feOffset dy="4"/>
<feGaussianBlur stdDeviation="2"/>
<feComposite in2="hardAlpha" operator="out"/>
<feColorMatrix type="matrix" values="0 0 0 0 0 0 0 0 0 0 0 0 0 0 0 0 0 0 0.25 0"/>
<feBlend mode="normal" in2="BackgroundImageFix" result="effect1_dropShadow_308_1075"/>
<feBlend mode="normal" in="SourceGraphic" in2="effect1_dropShadow_308_1075" result="shape"/>
</filter>
</defs>
</svg>
