<svg width="40" height="40" viewBox="0 0 40 40" fill="none" xmlns="http://www.w3.org/2000/svg">
<path d="M11.6667 5C11.6667 4.07952 10.9205 3.33333 10 3.33333C9.07957 3.33333 8.33337 4.07952 8.33337 4.99999V6.66666L5.00004 6.66666C4.07957 6.66666 3.33337 7.41285 3.33337 8.33333C3.33337 9.2538 4.07957 10 5.00004 10L8.33337 9.99999V11.6667C8.33337 12.5871 9.07957 13.3333 10 13.3333C10.9205 13.3333 11.6667 12.5871 11.6667 11.6667V5Z" fill="black"/>
<path d="M35 9.99999L16.6667 9.99999C15.7462 9.99999 15 9.2538 15 8.33333C15 7.41285 15.7462 6.66666 16.6667 6.66666H35C35.9205 6.66666 36.6667 7.41285 36.6667 8.33333C36.6667 9.2538 35.9205 9.99999 35 9.99999Z" fill="black"/>
<path d="M31.6667 16.6667V18.3333H35C35.9205 18.3333 36.6667 19.0795 36.6667 20C36.6667 20.9205 35.9205 21.6667 35 21.6667H31.6667V23.3333C31.6667 24.2538 30.9205 25 30 25C29.0796 25 28.3334 24.2538 28.3334 23.3333V16.6667C28.3334 15.7462 29.0796 15 30 15C30.9205 15 31.6667 15.7462 31.6667 16.6667Z" fill="black"/>
<path d="M3.33337 20C3.33337 19.0795 4.07957 18.3333 5.00004 18.3333L23.3334 18.3333C24.2538 18.3333 25 19.0795 25 20C25 20.9205 24.2538 21.6667 23.3334 21.6667L5.00004 21.6667C4.07957 21.6667 3.33337 20.9205 3.33337 20Z" fill="black"/>
<path d="M5.00004 30C4.07957 30 3.33337 30.7462 3.33337 31.6667C3.33337 32.5871 4.07957 33.3333 5.00004 33.3333H15V35C15 35.9205 15.7462 36.6667 16.6667 36.6667C17.5872 36.6667 18.3334 35.9205 18.3334 35V28.3333C18.3334 27.4129 17.5872 26.6667 16.6667 26.6667C15.7462 26.6667 15 27.4129 15 28.3333V30H5.00004Z" fill="black"/>
<path d="M35 33.3333L23.3334 33.3333C22.4129 33.3333 21.6667 32.5871 21.6667 31.6667C21.6667 30.7462 22.4129 30 23.3334 30L35 30C35.9205 30 36.6667 30.7462 36.6667 31.6667C36.6667 32.5871 35.9205 33.3333 35 33.3333Z" fill="black"/>
</svg>
